# xmcd
#
# Track frame offsets:
#	150
#	18310
#	29783
#	48856
#	67429
#	83247
#	100209
#	113157
#	127446
#	147054
#	162582
#	176078
#	192130
#	210149
#
# Disc length: 2990 seconds
#
# Revision: 2
# Processed by: cddbd v1.5.2PL0 Copyright (c) Steve Scherf et al.
# Submitted via: audiograbber 1.83.01
#
DISCID=cd0bac0e
DTITLE=Various Artist - SD 78
DYEAR=1998
DGENRE=Country
TTITLE0=Faith Hill - There Will Come A Day
TTITLE1=Alan Jackson - www.memory
TTITLE2=Womack, Lee Ann - Ashes By Now
TTITLE3=SHeDAISY - Lucky 4 You (Tonight I'm Just Me)
TTITLE4=Montgomery Gentry - All Night Long
TTITLE5=Neal McCoy,  - Every Man For Himself
TTITLE6=Dwight Yoakam,  - What Do You Know About Love
TTITLE7=Andy Griggs,  - You Made Me That Way
TTITLE8=Carolyn Dawn Johnson,  - Georgia
TTITLE9=Georgia Middleman,  - No Place Like Home
TTITLE10=Gary Allan,  - Right Where I Need To Be
TTITLE11=Marshall Dyllon - Live It Up
TTITLE12=Billy Gilman,  - Oklahoma
TTITLE13=Darryl Worley,  - A Good Day To Run, 
EXTD=
EXTT0=
EXTT1=
EXTT2=
EXTT3=
EXTT4=
EXTT5=
EXTT6=
EXTT7=
EXTT8=
EXTT9=
EXTT10=
EXTT11=
EXTT12=
EXTT13=
PLAYORDER=
